# xmcd CD database file
#
# Track frame offsets:
#	150
#	17462
#	40802
#	53292
#	76975
#	91852
#	109275
#	135457
#	159197
#	175400
#	191545
#	204582
#	218670
#	236135
#	243330
#	260452
#
# Disc length: 3803 seconds
#
# Revision: 3
# Processed by: cddbd v1.5.2PL0 Copyright (c) Steve Scherf et al.
# Submitted via: CDex 1.70beta3
#
DISCID=c60ed910
DTITLE=RC SUCCESSION - MARVY
DYEAR=1988
DGENRE=J-Rock
TTITLE0=DIGITAL REVERB CHILD
TTITLE1=MIDNIGHT BLUE
TTITLE2=FULL OF TEARS・涙あふれて
TTITLE3=AN OLD STORY・ありふれた出来事PART2
TTITLE4=CALL ME
TTITLE5=クールな気分
TTITLE6=共犯者・The Accomplice
TTITLE7=遠い叫び
TTITLE8=HONEY PIE
TTITLE9=GIBSON (CHABO'S BLUES)
TTITLE10=空が泣き出したら・The Sky is Crying
TTITLE11=夢中にさせて・Make Me Crazy About You
TTITLE12=DANCE
TTITLE13=俺は電気
TTITLE14=SHELTER OF LOVE-ツル・ツル
TTITLE15=NAUGHTY BOY
EXTD=YEAR: 1988
EXTT0=
EXTT1=
EXTT2=
EXTT3=
EXTT4=
EXTT5=
EXTT6=
EXTT7=
EXTT8=
EXTT9=
EXTT10=
EXTT11=
EXTT12=
EXTT13=
EXTT14=
EXTT15=
PLAYORDER=
